<svg width="19" height="14" viewBox="0 0 19 14" fill="none" xmlns="http://www.w3.org/2000/svg">
<path d="M6.63477 2.10156C6.39453 2.10156 6.19238 2.02246 6.02832 1.86426C5.87012 1.7002 5.79102 1.50098 5.79102 1.2666C5.79102 1.03223 5.87305 0.835938 6.03711 0.677734C6.20117 0.513672 6.40039 0.431641 6.63477 0.431641H17.7178C17.9521 0.431641 18.1514 0.513672 18.3154 0.677734C18.4795 0.835938 18.5615 1.03223 18.5615 1.2666C18.5615 1.50684 18.4795 1.70605 18.3154 1.86426C18.1514 2.02246 17.9521 2.10156 17.7178 2.10156H6.63477ZM6.63477 7.49805C6.39453 7.49805 6.19238 7.41895 6.02832 7.26074C5.87012 7.09668 5.79102 6.89746 5.79102 6.66309C5.79102 6.42871 5.87305 6.23242 6.03711 6.07422C6.20117 5.91016 6.40039 5.82812 6.63477 5.82812H17.7178C17.9521 5.82812 18.1514 5.91016 18.3154 6.07422C18.4795 6.23242 18.5615 6.42871 18.5615 6.66309C18.5615 6.89746 18.4795 7.09668 18.3154 7.26074C18.1514 7.41895 17.9521 7.49805 17.7178 7.49805H6.63477ZM6.63477 12.8945C6.39453 12.8945 6.19238 12.8154 6.02832 12.6572C5.87012 12.499 5.79102 12.3027 5.79102 12.0684C5.79102 11.8281 5.87305 11.6289 6.03711 11.4707C6.20117 11.3066 6.40039 11.2246 6.63477 11.2246H17.7178C17.9521 11.2246 18.1514 11.3066 18.3154 11.4707C18.4795 11.6348 18.5615 11.834 18.5615 12.0684C18.5615 12.3027 18.4795 12.499 18.3154 12.6572C18.1514 12.8154 17.9521 12.8945 17.7178 12.8945H6.63477ZM1.42285 2.25977C1.14746 2.25977 0.913086 2.16309 0.719727 1.96973C0.526367 1.77051 0.429688 1.53613 0.429688 1.2666C0.429688 0.991211 0.526367 0.756836 0.719727 0.563477C0.913086 0.370117 1.14746 0.273438 1.42285 0.273438H2.92578C3.19531 0.273438 3.42676 0.370117 3.62012 0.563477C3.81934 0.756836 3.91895 0.991211 3.91895 1.2666C3.91895 1.53613 3.81934 1.77051 3.62012 1.96973C3.42676 2.16309 3.19531 2.25977 2.92578 2.25977H1.42285ZM1.42285 7.65625C1.14746 7.65625 0.913086 7.55957 0.719727 7.36621C0.526367 7.17285 0.429688 6.93848 0.429688 6.66309C0.429688 6.3877 0.526367 6.15332 0.719727 5.95996C0.913086 5.7666 1.14746 5.66992 1.42285 5.66992H2.92578C3.19531 5.66992 3.42676 5.7666 3.62012 5.95996C3.81934 6.15332 3.91895 6.3877 3.91895 6.66309C3.91895 6.93848 3.81934 7.17285 3.62012 7.36621C3.42676 7.55957 3.19531 7.65625 2.92578 7.65625H1.42285ZM1.42285 13.0527C1.14746 13.0527 0.913086 12.9561 0.719727 12.7627C0.526367 12.5693 0.429688 12.3379 0.429688 12.0684C0.429688 11.7871 0.526367 11.5498 0.719727 11.3564C0.913086 11.1631 1.14746 11.0664 1.42285 11.0664H2.92578C3.19531 11.0664 3.42676 11.1631 3.62012 11.3564C3.81934 11.5498 3.91895 11.7871 3.91895 12.0684C3.91895 12.3379 3.81934 12.5693 3.62012 12.7627C3.42676 12.9561 3.19531 13.0527 2.92578 13.0527H1.42285Z" fill="#4F5EFC"/>
</svg>
