<svg width="21" height="19" viewBox="0 0 21 19" fill="none" xmlns="http://www.w3.org/2000/svg">
<path d="M11.3701 18.7334C10.4209 18.7334 9.50098 18.584 8.61035 18.2852C7.72559 17.9922 6.9082 17.5762 6.1582 17.0371C5.41406 16.5039 4.76953 15.8857 4.22461 15.1826C4.03125 14.9482 3.94922 14.7051 3.97852 14.4531C4.00781 14.2012 4.12207 14.002 4.32129 13.8555C4.53809 13.7031 4.76367 13.6533 4.99805 13.7061C5.23242 13.7588 5.44043 13.8877 5.62207 14.0928C6.06152 14.6729 6.57715 15.1768 7.16895 15.6045C7.7666 16.0264 8.41699 16.3516 9.12012 16.5801C9.8291 16.8145 10.5791 16.9346 11.3701 16.9404C12.3779 16.9463 13.3213 16.7588 14.2002 16.3779C15.085 16.0029 15.8584 15.4844 16.5205 14.8223C17.1885 14.1543 17.71 13.3809 18.085 12.502C18.4658 11.6172 18.6562 10.668 18.6562 9.6543C18.6562 8.64648 18.4658 7.70312 18.085 6.82422C17.71 5.93945 17.1885 5.16602 16.5205 4.50391C15.8584 3.83594 15.085 3.31445 14.2002 2.93945C13.3213 2.56445 12.3779 2.37695 11.3701 2.37695C10.3564 2.37695 9.41016 2.56445 8.53125 2.93945C7.6582 3.30859 6.8877 3.82422 6.21973 4.48633C5.55176 5.14844 5.02734 5.91895 4.64648 6.79785C4.27148 7.6709 4.08105 8.61133 4.0752 9.61914H2.28223C2.28809 8.37695 2.52832 7.21094 3.00293 6.12109C3.47754 5.03125 4.13379 4.07031 4.97168 3.23828C5.80957 2.40625 6.77344 1.75586 7.86328 1.28711C8.95898 0.8125 10.1279 0.575195 11.3701 0.575195C12.6123 0.575195 13.7812 0.8125 14.877 1.28711C15.9727 1.76172 16.9365 2.41797 17.7686 3.25586C18.6064 4.08789 19.2627 5.05176 19.7373 6.14746C20.2119 7.24316 20.4492 8.41211 20.4492 9.6543C20.4492 10.8965 20.2119 12.0654 19.7373 13.1611C19.2627 14.2568 18.6064 15.2236 17.7686 16.0615C16.9365 16.8994 15.9727 17.5527 14.877 18.0215C13.7812 18.4961 12.6123 18.7334 11.3701 18.7334ZM1.22754 7.86133H5.56934C5.79199 7.86133 5.95898 7.91406 6.07031 8.01953C6.1875 8.11914 6.24316 8.24805 6.2373 8.40625C6.23145 8.55859 6.16992 8.72266 6.05273 8.89844L3.91699 11.8604C3.77051 12.0596 3.59766 12.1621 3.39844 12.168C3.19922 12.168 3.02344 12.0654 2.87109 11.8604L0.735352 8.89844C0.618164 8.72852 0.556641 8.56445 0.550781 8.40625C0.544922 8.24805 0.597656 8.11914 0.708984 8.01953C0.826172 7.91406 0.999023 7.86133 1.22754 7.86133ZM11.3613 14.5938C11.25 14.5938 11.1562 14.5586 11.0801 14.4883C11.0039 14.4121 10.9658 14.3125 10.9658 14.1895V13.5918C10.3389 13.5332 9.80566 13.3516 9.36621 13.0469C8.93262 12.7422 8.6543 12.3525 8.53125 11.8779C8.51367 11.8252 8.49902 11.7754 8.4873 11.7285C8.48145 11.6816 8.47852 11.6318 8.47852 11.5791C8.47852 11.4033 8.53125 11.2627 8.63672 11.1572C8.74805 11.0459 8.89453 10.9902 9.07617 10.9902C9.22266 10.9902 9.3457 11.0312 9.44531 11.1133C9.55078 11.1895 9.63281 11.3037 9.69141 11.4561C9.76172 11.7197 9.90234 11.9424 10.1133 12.124C10.3242 12.3057 10.6084 12.4229 10.9658 12.4756V10.1377L10.8252 10.1025C10.0928 9.93848 9.53906 9.68359 9.16406 9.33789C8.78906 8.98633 8.60156 8.52637 8.60156 7.95801C8.60156 7.34863 8.82129 6.84766 9.26074 6.45508C9.70605 6.05664 10.2744 5.82227 10.9658 5.75195V5.16309C10.9658 4.89355 11.0977 4.75879 11.3613 4.75879C11.4785 4.75879 11.5752 4.79687 11.6514 4.87305C11.7275 4.94336 11.7656 5.04004 11.7656 5.16309V5.75195C12.3516 5.81055 12.8496 5.99219 13.2598 6.29688C13.6758 6.60156 13.9453 6.98242 14.0684 7.43945C14.0801 7.48633 14.0889 7.53613 14.0947 7.58887C14.1064 7.63574 14.1123 7.68555 14.1123 7.73828C14.1123 7.9082 14.0566 8.0459 13.9453 8.15137C13.8398 8.25684 13.6963 8.30957 13.5146 8.30957C13.2334 8.30957 13.0283 8.15723 12.8994 7.85254C12.8115 7.58887 12.6709 7.375 12.4775 7.21094C12.2842 7.04688 12.0469 6.93848 11.7656 6.88574V9.0918L11.959 9.13574C12.7207 9.27637 13.292 9.52539 13.6729 9.88281C14.0596 10.2402 14.2529 10.7207 14.2529 11.3242C14.2529 11.9863 14.0156 12.5137 13.541 12.9062C13.0723 13.2988 12.4805 13.5303 11.7656 13.6006V14.1895C11.7656 14.3125 11.7275 14.4121 11.6514 14.4883C11.5752 14.5586 11.4785 14.5938 11.3613 14.5938ZM10.9658 8.88965V6.87695C10.626 6.93555 10.3564 7.05566 10.1572 7.2373C9.96387 7.41895 9.86719 7.63281 9.86719 7.87891C9.86719 8.11328 9.95215 8.3125 10.1221 8.47656C10.292 8.63477 10.5527 8.7666 10.9043 8.87207L10.9658 8.88965ZM11.7656 10.3398V12.4756C12.1699 12.4287 12.4717 12.3115 12.6709 12.124C12.876 11.9307 12.9785 11.6934 12.9785 11.4121C12.9785 11.1602 12.8994 10.9521 12.7412 10.7881C12.5889 10.6182 12.3193 10.4805 11.9326 10.375L11.7656 10.3398Z" fill="#007AFF"/>
</svg>
